<mxfile host="app.diagrams.net" modified="2022-05-11T13:11:27.280Z" agent="5.0 (Windows NT 10.0; Win64; x64) AppleWebKit/537.36 (KHTML, like Gecko) Chrome/101.0.4951.54 Safari/537.36" etag="kltycTERP4SfJIsduvhn" version="18.0.2" type="github">
  <diagram id="C5RBs43oDa-KdzZeNtuy" name="Page-1">
    <mxGraphModel dx="1511" dy="926" grid="1" gridSize="10" guides="1" tooltips="1" connect="1" arrows="1" fold="1" page="1" pageScale="1" pageWidth="1169" pageHeight="1654" math="0" shadow="0">
      <root>
        <mxCell id="WIyWlLk6GJQsqaUBKTNV-0" />
        <mxCell id="WIyWlLk6GJQsqaUBKTNV-1" parent="WIyWlLk6GJQsqaUBKTNV-0" />
        <mxCell id="PAzWZB7jSIGjM0lh0B_C-14" value="HttpServletBean" style="swimlane;" vertex="1" parent="WIyWlLk6GJQsqaUBKTNV-1">
          <mxGeometry x="40" y="72" width="250" height="310" as="geometry" />
        </mxCell>
        <mxCell id="PAzWZB7jSIGjM0lh0B_C-19" value="init（）" style="swimlane;fontStyle=0;childLayout=stackLayout;horizontal=1;startSize=26;fillColor=#fff2cc;horizontalStack=0;resizeParent=1;resizeParentMax=0;resizeLast=0;collapsible=1;marginBottom=0;strokeColor=#d6b656;" vertex="1" parent="PAzWZB7jSIGjM0lh0B_C-14">
          <mxGeometry x="10" y="42" width="230" height="194" as="geometry" />
        </mxCell>
        <mxCell id="PAzWZB7jSIGjM0lh0B_C-20" value="1. ServletConfigPropertyValues获取&#xa;init-partam配置信息" style="text;align=left;verticalAlign=top;spacingLeft=4;spacingRight=4;overflow=hidden;rotatable=0;points=[[0,0.5],[1,0.5]];portConstraint=eastwest;strokeColor=default;" vertex="1" parent="PAzWZB7jSIGjM0lh0B_C-19">
          <mxGeometry y="26" width="230" height="44" as="geometry" />
        </mxCell>
        <mxCell id="PAzWZB7jSIGjM0lh0B_C-21" value="2.forBeanPropertyAccess将servlet&#xa;为包装BeanWrapepr" style="text;align=left;verticalAlign=top;spacingLeft=4;spacingRight=4;overflow=hidden;rotatable=0;points=[[0,0.5],[1,0.5]];portConstraint=eastwest;strokeColor=default;" vertex="1" parent="PAzWZB7jSIGjM0lh0B_C-19">
          <mxGeometry y="70" width="230" height="40" as="geometry" />
        </mxCell>
        <mxCell id="PAzWZB7jSIGjM0lh0B_C-22" value="3.为beanWrapper准备好ResourceEditor" style="text;strokeColor=default;fillColor=none;align=left;verticalAlign=top;spacingLeft=4;spacingRight=4;overflow=hidden;rotatable=0;points=[[0,0.5],[1,0.5]];portConstraint=eastwest;" vertex="1" parent="PAzWZB7jSIGjM0lh0B_C-19">
          <mxGeometry y="110" width="230" height="28" as="geometry" />
        </mxCell>
        <mxCell id="PAzWZB7jSIGjM0lh0B_C-23" value="4. 将获取到的属性pvs注入到BeanWrapper" style="text;strokeColor=default;fillColor=none;align=left;verticalAlign=top;spacingLeft=4;spacingRight=4;overflow=hidden;rotatable=0;points=[[0,0.5],[1,0.5]];portConstraint=eastwest;" vertex="1" parent="PAzWZB7jSIGjM0lh0B_C-19">
          <mxGeometry y="138" width="230" height="28" as="geometry" />
        </mxCell>
        <mxCell id="PAzWZB7jSIGjM0lh0B_C-24" value="5. 模板方法initServletBean" style="text;strokeColor=default;fillColor=none;align=left;verticalAlign=top;spacingLeft=4;spacingRight=4;overflow=hidden;rotatable=0;points=[[0,0.5],[1,0.5]];portConstraint=eastwest;fontColor=#FF3333;" vertex="1" parent="PAzWZB7jSIGjM0lh0B_C-19">
          <mxGeometry y="166" width="230" height="28" as="geometry" />
        </mxCell>
        <mxCell id="PAzWZB7jSIGjM0lh0B_C-25" value="FrameworkServlet" style="swimlane;fontColor=#000000;" vertex="1" parent="WIyWlLk6GJQsqaUBKTNV-1">
          <mxGeometry x="340" y="250" width="260" height="720" as="geometry" />
        </mxCell>
        <mxCell id="PAzWZB7jSIGjM0lh0B_C-26" value="initServletBean（）" style="swimlane;fontStyle=1;align=center;verticalAlign=top;childLayout=stackLayout;horizontal=1;startSize=26;horizontalStack=0;resizeParent=1;resizeParentMax=0;resizeLast=0;collapsible=1;marginBottom=0;fillColor=#ffe6cc;strokeColor=#d79b00;" vertex="1" parent="PAzWZB7jSIGjM0lh0B_C-25">
          <mxGeometry x="20" y="32" width="200" height="100" as="geometry" />
        </mxCell>
        <mxCell id="PAzWZB7jSIGjM0lh0B_C-27" value="1. initWebApplicationContext" style="text;strokeColor=none;fillColor=none;align=left;verticalAlign=top;spacingLeft=4;spacingRight=4;overflow=hidden;rotatable=0;points=[[0,0.5],[1,0.5]];portConstraint=eastwest;fontColor=#FF3333;" vertex="1" parent="PAzWZB7jSIGjM0lh0B_C-26">
          <mxGeometry y="26" width="200" height="26" as="geometry" />
        </mxCell>
        <mxCell id="PAzWZB7jSIGjM0lh0B_C-28" value="" style="line;strokeWidth=1;fillColor=none;align=left;verticalAlign=middle;spacingTop=-1;spacingLeft=3;spacingRight=3;rotatable=0;labelPosition=right;points=[];portConstraint=eastwest;fontColor=#000000;" vertex="1" parent="PAzWZB7jSIGjM0lh0B_C-26">
          <mxGeometry y="52" width="200" height="8" as="geometry" />
        </mxCell>
        <mxCell id="PAzWZB7jSIGjM0lh0B_C-29" value="2. 模板方法initFrameworkServlet，&#xa;但是还没有人用" style="text;strokeColor=none;fillColor=none;align=left;verticalAlign=top;spacingLeft=4;spacingRight=4;overflow=hidden;rotatable=0;points=[[0,0.5],[1,0.5]];portConstraint=eastwest;fontColor=#000000;" vertex="1" parent="PAzWZB7jSIGjM0lh0B_C-26">
          <mxGeometry y="60" width="200" height="40" as="geometry" />
        </mxCell>
        <mxCell id="PAzWZB7jSIGjM0lh0B_C-42" value="configureAndRefreshWebApplicationContext" style="swimlane;fontStyle=1;align=center;verticalAlign=top;childLayout=stackLayout;horizontal=1;startSize=26;horizontalStack=0;resizeParent=1;resizeParentMax=0;resizeLast=0;collapsible=1;marginBottom=0;fontColor=#000000;strokeColor=default;" vertex="1" parent="PAzWZB7jSIGjM0lh0B_C-25">
          <mxGeometry x="5" y="430" width="250" height="220" as="geometry" />
        </mxCell>
        <mxCell id="PAzWZB7jSIGjM0lh0B_C-43" value="1. 初始化webAppCtx的一些属性" style="text;strokeColor=none;fillColor=none;align=left;verticalAlign=top;spacingLeft=4;spacingRight=4;overflow=hidden;rotatable=0;points=[[0,0.5],[1,0.5]];portConstraint=eastwest;fontColor=#000000;" vertex="1" parent="PAzWZB7jSIGjM0lh0B_C-42">
          <mxGeometry y="26" width="250" height="26" as="geometry" />
        </mxCell>
        <mxCell id="PAzWZB7jSIGjM0lh0B_C-44" value="" style="line;strokeWidth=1;fillColor=none;align=left;verticalAlign=middle;spacingTop=-1;spacingLeft=3;spacingRight=3;rotatable=0;labelPosition=right;points=[];portConstraint=eastwest;fontColor=#000000;" vertex="1" parent="PAzWZB7jSIGjM0lh0B_C-42">
          <mxGeometry y="52" width="250" height="8" as="geometry" />
        </mxCell>
        <mxCell id="PAzWZB7jSIGjM0lh0B_C-45" value="2. postProcessWebApplicationContext模&#xa;板方法" style="text;strokeColor=default;fillColor=none;align=left;verticalAlign=top;spacingLeft=4;spacingRight=4;overflow=hidden;rotatable=0;points=[[0,0.5],[1,0.5]];portConstraint=eastwest;fontColor=#000000;" vertex="1" parent="PAzWZB7jSIGjM0lh0B_C-42">
          <mxGeometry y="60" width="250" height="40" as="geometry" />
        </mxCell>
        <mxCell id="PAzWZB7jSIGjM0lh0B_C-55" value="3. 找到web配置文件的globalInitializer-&#xa;Classes以及this里的contextInitializer-&#xa;Classes的ApplicationContextInitializer并执行&#xa;其initialize方法" style="text;strokeColor=default;fillColor=none;align=left;verticalAlign=top;spacingLeft=4;spacingRight=4;overflow=hidden;rotatable=0;points=[[0,0.5],[1,0.5]];portConstraint=eastwest;fontColor=#000000;" vertex="1" parent="PAzWZB7jSIGjM0lh0B_C-42">
          <mxGeometry y="100" width="250" height="80" as="geometry" />
        </mxCell>
        <mxCell id="PAzWZB7jSIGjM0lh0B_C-56" value="4. 初始化spring容器Abstractapplication-&#xa;Context#refresh" style="text;strokeColor=#2D7600;fillColor=#60a917;align=left;verticalAlign=top;spacingLeft=4;spacingRight=4;overflow=hidden;rotatable=0;points=[[0,0.5],[1,0.5]];portConstraint=eastwest;fontColor=#ffffff;" vertex="1" parent="PAzWZB7jSIGjM0lh0B_C-42">
          <mxGeometry y="180" width="250" height="40" as="geometry" />
        </mxCell>
        <mxCell id="PAzWZB7jSIGjM0lh0B_C-30" style="edgeStyle=orthogonalEdgeStyle;rounded=0;orthogonalLoop=1;jettySize=auto;html=1;entryX=0.002;entryY=0.11;entryDx=0;entryDy=0;entryPerimeter=0;fontColor=#000000;endArrow=classic;endFill=1;" edge="1" parent="WIyWlLk6GJQsqaUBKTNV-1" source="PAzWZB7jSIGjM0lh0B_C-24" target="PAzWZB7jSIGjM0lh0B_C-26">
          <mxGeometry relative="1" as="geometry" />
        </mxCell>
        <mxCell id="PAzWZB7jSIGjM0lh0B_C-35" value="initWebApplicationContext" style="swimlane;fontStyle=1;align=center;verticalAlign=top;childLayout=stackLayout;horizontal=1;startSize=26;horizontalStack=0;resizeParent=1;resizeParentMax=0;resizeLast=0;collapsible=1;marginBottom=0;strokeColor=#9673a6;fillColor=#e1d5e7;" vertex="1" parent="WIyWlLk6GJQsqaUBKTNV-1">
          <mxGeometry x="360" y="414" width="200" height="224" as="geometry" />
        </mxCell>
        <mxCell id="PAzWZB7jSIGjM0lh0B_C-37" value="" style="line;strokeWidth=1;fillColor=none;align=left;verticalAlign=middle;spacingTop=-1;spacingLeft=3;spacingRight=3;rotatable=0;labelPosition=right;points=[];portConstraint=eastwest;fontColor=#FF3333;" vertex="1" parent="PAzWZB7jSIGjM0lh0B_C-35">
          <mxGeometry y="26" width="200" height="8" as="geometry" />
        </mxCell>
        <mxCell id="PAzWZB7jSIGjM0lh0B_C-38" value="1. 从构造函数里通过spring自动注入&#xa;获取webAppCtx" style="text;strokeColor=default;fillColor=none;align=left;verticalAlign=top;spacingLeft=4;spacingRight=4;overflow=hidden;rotatable=0;points=[[0,0.5],[1,0.5]];portConstraint=eastwest;fontColor=#000000;" vertex="1" parent="PAzWZB7jSIGjM0lh0B_C-35">
          <mxGeometry y="34" width="200" height="42" as="geometry" />
        </mxCell>
        <mxCell id="PAzWZB7jSIGjM0lh0B_C-36" value="2. 从servletContext获取webApp-&#xa;licationContext" style="text;strokeColor=none;fillColor=none;align=left;verticalAlign=top;spacingLeft=4;spacingRight=4;overflow=hidden;rotatable=0;points=[[0,0.5],[1,0.5]];portConstraint=eastwest;fontColor=#000000;" vertex="1" parent="PAzWZB7jSIGjM0lh0B_C-35">
          <mxGeometry y="76" width="200" height="44" as="geometry" />
        </mxCell>
        <mxCell id="PAzWZB7jSIGjM0lh0B_C-39" value="3. 获取不到就自己通过&#xa;createWebApplicationContext&#xa;创建一个webAppCtx" style="text;strokeColor=default;fillColor=none;align=left;verticalAlign=top;spacingLeft=4;spacingRight=4;overflow=hidden;rotatable=0;points=[[0,0.5],[1,0.5]];portConstraint=eastwest;fontColor=#000000;" vertex="1" parent="PAzWZB7jSIGjM0lh0B_C-35">
          <mxGeometry y="120" width="200" height="60" as="geometry" />
        </mxCell>
        <mxCell id="PAzWZB7jSIGjM0lh0B_C-40" value="4.刷新spring的AppCtx" style="text;strokeColor=none;fillColor=none;align=left;verticalAlign=top;spacingLeft=4;spacingRight=4;overflow=hidden;rotatable=0;points=[[0,0.5],[1,0.5]];portConstraint=eastwest;fontColor=#000000;" vertex="1" parent="PAzWZB7jSIGjM0lh0B_C-35">
          <mxGeometry y="180" width="200" height="44" as="geometry" />
        </mxCell>
        <mxCell id="PAzWZB7jSIGjM0lh0B_C-46" style="edgeStyle=orthogonalEdgeStyle;rounded=0;orthogonalLoop=1;jettySize=auto;html=1;exitX=1;exitY=0.5;exitDx=0;exitDy=0;entryX=1;entryY=0.25;entryDx=0;entryDy=0;fontColor=#000000;endArrow=classic;endFill=1;fillColor=#d80073;strokeColor=#A50040;" edge="1" parent="WIyWlLk6GJQsqaUBKTNV-1" source="PAzWZB7jSIGjM0lh0B_C-39" target="PAzWZB7jSIGjM0lh0B_C-42">
          <mxGeometry relative="1" as="geometry">
            <Array as="points">
              <mxPoint x="620" y="564" />
              <mxPoint x="620" y="735" />
            </Array>
          </mxGeometry>
        </mxCell>
        <mxCell id="PAzWZB7jSIGjM0lh0B_C-50" value="调用，初始化BeanFactory" style="edgeLabel;html=1;align=center;verticalAlign=middle;resizable=0;points=[];fontColor=#000000;" vertex="1" connectable="0" parent="PAzWZB7jSIGjM0lh0B_C-46">
          <mxGeometry x="-0.1816" y="2" relative="1" as="geometry">
            <mxPoint x="1" y="51" as="offset" />
          </mxGeometry>
        </mxCell>
        <mxCell id="PAzWZB7jSIGjM0lh0B_C-62" value="DIspatcherServlet" style="swimlane;fontColor=#000000;strokeColor=default;" vertex="1" parent="WIyWlLk6GJQsqaUBKTNV-1">
          <mxGeometry x="770" y="465" width="200" height="200" as="geometry" />
        </mxCell>
        <mxCell id="PAzWZB7jSIGjM0lh0B_C-63" value="onRefresh" style="swimlane;fontStyle=1;align=center;verticalAlign=top;childLayout=stackLayout;horizontal=1;startSize=26;horizontalStack=0;resizeParent=1;resizeParentMax=0;resizeLast=0;collapsible=1;marginBottom=0;fontColor=#000000;strokeColor=default;" vertex="1" parent="WIyWlLk6GJQsqaUBKTNV-1">
          <mxGeometry x="790" y="510" width="160" height="118" as="geometry" />
        </mxCell>
        <mxCell id="PAzWZB7jSIGjM0lh0B_C-64" value="initStrategies加载了&#xa;springMVC的9大组件在&#xa;DispatcherServlet中" style="text;strokeColor=none;fillColor=none;align=left;verticalAlign=top;spacingLeft=4;spacingRight=4;overflow=hidden;rotatable=0;points=[[0,0.5],[1,0.5]];portConstraint=eastwest;fontColor=#000000;" vertex="1" parent="PAzWZB7jSIGjM0lh0B_C-63">
          <mxGeometry y="26" width="160" height="84" as="geometry" />
        </mxCell>
        <mxCell id="PAzWZB7jSIGjM0lh0B_C-65" value="" style="line;strokeWidth=1;fillColor=none;align=left;verticalAlign=middle;spacingTop=-1;spacingLeft=3;spacingRight=3;rotatable=0;labelPosition=right;points=[];portConstraint=eastwest;fontColor=#000000;" vertex="1" parent="PAzWZB7jSIGjM0lh0B_C-63">
          <mxGeometry y="110" width="160" height="8" as="geometry" />
        </mxCell>
        <mxCell id="PAzWZB7jSIGjM0lh0B_C-68" style="edgeStyle=orthogonalEdgeStyle;rounded=0;orthogonalLoop=1;jettySize=auto;html=1;exitX=1;exitY=0.5;exitDx=0;exitDy=0;entryX=0;entryY=0.75;entryDx=0;entryDy=0;fontColor=#000000;endArrow=classic;endFill=1;" edge="1" parent="WIyWlLk6GJQsqaUBKTNV-1" source="PAzWZB7jSIGjM0lh0B_C-40" target="PAzWZB7jSIGjM0lh0B_C-62">
          <mxGeometry relative="1" as="geometry" />
        </mxCell>
        <mxCell id="PAzWZB7jSIGjM0lh0B_C-69" style="edgeStyle=orthogonalEdgeStyle;rounded=0;orthogonalLoop=1;jettySize=auto;html=1;exitX=0;exitY=0.5;exitDx=0;exitDy=0;entryX=0;entryY=0.5;entryDx=0;entryDy=0;fontColor=#000000;endArrow=classic;endFill=1;" edge="1" parent="WIyWlLk6GJQsqaUBKTNV-1" source="PAzWZB7jSIGjM0lh0B_C-38" target="PAzWZB7jSIGjM0lh0B_C-45">
          <mxGeometry relative="1" as="geometry">
            <Array as="points">
              <mxPoint x="270" y="469" />
              <mxPoint x="270" y="760" />
            </Array>
          </mxGeometry>
        </mxCell>
        <mxCell id="PAzWZB7jSIGjM0lh0B_C-70" value="调用，初始化BeanFactory" style="edgeLabel;html=1;align=center;verticalAlign=middle;resizable=0;points=[];fontColor=#000000;" vertex="1" connectable="0" parent="PAzWZB7jSIGjM0lh0B_C-69">
          <mxGeometry x="-0.1301" y="-2" relative="1" as="geometry">
            <mxPoint as="offset" />
          </mxGeometry>
        </mxCell>
        <mxCell id="PAzWZB7jSIGjM0lh0B_C-75" style="edgeStyle=orthogonalEdgeStyle;rounded=0;orthogonalLoop=1;jettySize=auto;html=1;entryX=1.02;entryY=0.735;entryDx=0;entryDy=0;entryPerimeter=0;fontSize=16;fontColor=#000000;endArrow=classic;endFill=1;exitX=0.5;exitY=1;exitDx=0;exitDy=0;" edge="1" parent="WIyWlLk6GJQsqaUBKTNV-1" source="PAzWZB7jSIGjM0lh0B_C-77" target="PAzWZB7jSIGjM0lh0B_C-36">
          <mxGeometry relative="1" as="geometry">
            <mxPoint x="705" y="172" as="sourcePoint" />
          </mxGeometry>
        </mxCell>
        <mxCell id="PAzWZB7jSIGjM0lh0B_C-77" value="&lt;font style=&quot;font-size: 15px;&quot;&gt;contextLoaderListener在执行&lt;span style=&quot;color: rgb(0, 98, 122); background-color: rgb(255, 255, 255); font-family: &amp;quot;JetBrains Mono&amp;quot;, monospace;&quot;&gt;initWebApplicationContext时就初始化过容器&lt;/span&gt;&lt;/font&gt;&lt;span style=&quot;color: rgb(0, 98, 122); background-color: rgb(255, 255, 255); font-family: &amp;quot;JetBrains Mono&amp;quot;, monospace; font-size: 9.8pt;&quot;&gt;了&lt;/span&gt;" style="rounded=0;whiteSpace=wrap;html=1;fontSize=15;fontColor=#000000;strokeColor=default;" vertex="1" parent="WIyWlLk6GJQsqaUBKTNV-1">
          <mxGeometry x="585" y="100" width="240" height="90" as="geometry" />
        </mxCell>
      </root>
    </mxGraphModel>
  </diagram>
</mxfile>
